<svg width="800" height="450" viewBox="0 0 800 450" fill="none" xmlns="http://www.w3.org/2000/svg">
  <rect width="800" height="450" fill="url(#gradient)"/>
  <rect x="40" y="40" width="720" height="370" rx="8" fill="#18181B" fill-opacity="0.8"/>
  
  <!-- Grid pattern -->
  <pattern id="grid" x="0" y="0" width="40" height="40" patternUnits="userSpaceOnUse">
    <rect x="0" y="0" width="40" height="40" fill="none" stroke="#27272A" stroke-width="0.5"/>
  </pattern>
  <rect x="0" y="0" width="800" height="450" fill="url(#grid)"/>
  
  <!-- Building silhouette -->
  <rect x="200" y="150" width="120" height="250" rx="4" fill="#3F3F46"/>
  <rect x="340" y="120" width="120" height="280" rx="4" fill="#52525B"/>
  <rect x="480" y="180" width="120" height="220" rx="4" fill="#3F3F46"/>
  
  <!-- Windows -->
  <rect x="210" y="160" width="20" height="20" fill="#F59E0B" opacity="0.8"/>
  <rect x="240" y="160" width="20" height="20" fill="#F59E0B" opacity="0.6"/>
  <rect x="270" y="160" width="20" height="20" fill="#F59E0B" opacity="0.4"/>
  <rect x="300" y="160" width="20" height="20" fill="#F59E0B" opacity="0.8"/>
  
  <rect x="350" y="130" width="20" height="20" fill="#3B82F6" opacity="0.8"/>
  <rect x="380" y="130" width="20" height="20" fill="#3B82F6" opacity="0.6"/>
  <rect x="410" y="130" width="20" height="20" fill="#3B82F6" opacity="0.4"/>
  <rect x="440" y="130" width="20" height="20" fill="#3B82F6" opacity="0.8"/>
  
  <!-- Text -->
  <text x="400" y="80" font-family="Arial, sans-serif" font-size="32" font-weight="bold" text-anchor="middle" fill="#F3F4F6">Design Sprint 2025</text>
  <text x="400" y="430" font-family="Arial, sans-serif" font-size="16" text-anchor="middle" fill="#A1A1AA">500m² para o futuro</text>
  
  <!-- Gradient -->
  <defs>
    <linearGradient id="gradient" x1="0%" y1="0%" x2="100%" y2="100%">
      <stop offset="0%" style="stop-color:#1E293B;stop-opacity:1" />
      <stop offset="100%" style="stop-color:#0F172A;stop-opacity:1" />
    </linearGradient>
  </defs>
</svg>