<svg width="800" height="400" xmlns="http://www.w3.org/2000/svg">
  <defs>
    <linearGradient id="bg" x1="0%" y1="0%" x2="100%" y2="100%">
      <stop offset="0%" style="stop-color:#1f2937;stop-opacity:1" />
      <stop offset="100%" style="stop-color:#374151;stop-opacity:1" />
    </linearGradient>
  </defs>
  
  <!-- Background -->
  <rect width="800" height="400" fill="url(#bg)"/>
  
  <!-- Building silhouettes -->
  <rect x="50" y="200" width="80" height="150" fill="#4b5563" opacity="0.8"/>
  <rect x="140" y="180" width="60" height="170" fill="#6b7280" opacity="0.7"/>
  <rect x="210" y="220" width="70" height="130" fill="#4b5563" opacity="0.8"/>
  <rect x="290" y="160" width="90" height="190" fill="#6b7280" opacity="0.9"/>
  <rect x="390" y="190" width="75" height="160" fill="#4b5563" opacity="0.8"/>
  <rect x="480" y="170" width="65" height="180" fill="#6b7280" opacity="0.7"/>
  <rect x="560" y="210" width="80" height="140" fill="#4b5563" opacity="0.8"/>
  <rect x="650" y="185" width="70" height="165" fill="#6b7280" opacity="0.9"/>
  
  <!-- Green spaces -->
  <circle cx="150" cy="320" r="25" fill="#10b981" opacity="0.6"/>
  <circle cx="350" cy="310" r="30" fill="#10b981" opacity="0.6"/>
  <circle cx="600" cy="325" r="20" fill="#10b981" opacity="0.6"/>
  
  <!-- Windows -->
  <rect x="60" y="220" width="8" height="12" fill="#fbbf24" opacity="0.8"/>
  <rect x="72" y="220" width="8" height="12" fill="#fbbf24" opacity="0.8"/>
  <rect x="60" y="240" width="8" height="12" fill="#fbbf24" opacity="0.8"/>
  <rect x="72" y="240" width="8" height="12" fill="#fbbf24" opacity="0.8"/>
  
  <rect x="150" y="200" width="6" height="10" fill="#fbbf24" opacity="0.8"/>
  <rect x="160" y="200" width="6" height="10" fill="#fbbf24" opacity="0.8"/>
  <rect x="150" y="215" width="6" height="10" fill="#fbbf24" opacity="0.8"/>
  
  <rect x="300" y="180" width="10" height="15" fill="#fbbf24" opacity="0.8"/>
  <rect x="315" y="180" width="10" height="15" fill="#fbbf24" opacity="0.8"/>
  <rect x="330" y="180" width="10" height="15" fill="#fbbf24" opacity="0.8"/>
  
  <!-- Title -->
  <text x="400" y="80" font-family="Arial, sans-serif" font-size="28" font-weight="bold" text-anchor="middle" fill="#f9fafb">
    Design Sprint 2025
  </text>
  <text x="400" y="110" font-family="Arial, sans-serif" font-size="16" text-anchor="middle" fill="#d1d5db">
    Espaços Pequenos, Futuros Grandes
  </text>
  
  <!-- 500m² indicator -->
  <rect x="320" y="280" width="160" height="80" fill="none" stroke="#10b981" stroke-width="2" stroke-dasharray="5,5"/>
  <text x="400" y="315" font-family="Arial, sans-serif" font-size="14" font-weight="bold" text-anchor="middle" fill="#10b981">
    500m²
  </text>
  <text x="400" y="335" font-family="Arial, sans-serif" font-size="12" text-anchor="middle" fill="#10b981">
    GRANDE IMPACTO
  </text>
</svg>