<svg xmlns="http://www.w3.org/2000/svg" xmlns:xlink="http://www.w3.org/1999/xlink" id="Layer_1" x="0px" y="0px" width="183.5px" height="80px" viewBox="0 0 183.5 80" xml:space="preserve"><g>	<rect x="174.184" y="52.259" fill="#D73C37" width="6.128" height="6.124"></rect>	<g>		<path fill="#17345D" d="M33.549,56.205h-8.148V36.7c0-1.167-0.178-2.192-0.535-3.083c-0.362-0.891-0.842-1.62-1.452-2.206   c-0.605-0.588-1.295-1.022-2.073-1.299c-0.768-0.283-1.581-0.426-2.408-0.426c-1.25,0-2.49,0.22-3.688,0.645   c-1.215,0.434-2.315,1.125-3.296,2.067v23.807H3.803V23.524h8.146l0.057,2.433c0.486-0.49,1.093-0.948,1.813-1.358   c0.714-0.415,1.447-0.765,2.223-1.048c0.773-0.283,1.567-0.503,2.375-0.651c0.816-0.148,1.6-0.225,2.351-0.225   c1.66,0,3.252,0.26,4.78,0.791c1.53,0.528,2.886,1.338,4.073,2.432c1.184,1.093,2.141,2.503,2.857,4.242   c0.717,1.734,1.073,3.788,1.073,6.159V56.205z"></path>		<path fill="#17345D" d="M73.531,39.805c0,0.534-0.031,1.076-0.085,1.647c-0.061,0.56-0.123,1.145-0.199,1.753H47.113   c0.303,0.936,0.731,1.835,1.279,2.686c0.545,0.845,1.222,1.58,2.01,2.201c0.793,0.626,1.684,1.117,2.68,1.47   c1.004,0.36,2.107,0.537,3.319,0.537c1.464,0,2.94-0.249,4.398-0.762c1.481-0.508,2.701-1.196,3.679-2.063l5.149,5.143   c-2.26,1.704-4.486,2.897-6.639,3.593c-2.175,0.695-4.47,1.045-6.879,1.045c-2.446,0-4.741-0.452-6.87-1.35   c-2.135-0.909-3.976-2.138-5.537-3.688c-1.564-1.539-2.8-3.359-3.708-5.445c-0.902-2.096-1.355-4.331-1.355-6.706   c0-2.377,0.454-4.603,1.355-6.707c0.908-2.087,2.149-3.907,3.736-5.452c1.581-1.548,3.428-2.772,5.538-3.676   c2.103-0.906,4.373-1.356,6.784-1.356c2.303,0,4.507,0.428,6.618,1.271c2.107,0.846,3.979,2.026,5.598,3.536   c1.618,1.51,2.9,3.305,3.848,5.399C73.049,34.973,73.531,37.285,73.531,39.805 M64.989,36.64   c-0.645-2.071-1.784-3.736-3.422-5.006c-1.638-1.261-3.502-1.889-5.566-1.889c-2.038,0-3.87,0.627-5.488,1.889   c-1.619,1.27-2.752,2.935-3.4,5.006H64.989z"></path>		<path fill="#D73C37" d="M103.566,56.264h-6.979c0-24.499-30.783-44.43-68.632-44.43c-8.021,0-15.875,0.899-23.349,2.666   L3.001,7.709c8.003-1.893,16.4-2.854,24.955-2.854C69.647,4.855,103.566,27.923,103.566,56.264"></path>		<polygon fill="#F04F40" points="91.058,45.802 84.215,56.264 74.885,56.264 86.53,39.129 91.058,32.63 96.991,23.459    106.271,23.459 95.522,39.129   "></polygon>		<path fill="#17345D" d="M139.917,57.444h-8.445v-2.58c-2.168,2.17-6.036,3.405-9.033,3.405c-6.854,0-13.129-4.229-13.129-14.14   V23.551h8.442v20.171c0,4.929,3.165,7.272,6.626,7.272c2.759,0,5.103-0.936,7.094-2.817V23.551h8.445V57.444z"></path>		<path fill="#17345D" d="M157.948,58.383c-5.16,0-9.563-1.815-12.842-6.04l5.102-5.155c2.053,2.574,4.75,4.101,7.8,4.101   c2.636,0,4.636-0.997,4.636-2.933c0-2.054-2.646-3.228-7.158-4.572c-5.338-1.583-10.44-4.809-10.44-10.677   c0-6.625,6.685-10.438,13.077-10.438c5.161,0,9.385,1.934,12.671,5.871l-5.047,5.101c-1.936-2.41-4.458-3.931-7.444-3.931   c-2.054,0-4.869,1.056-4.869,3.165c0,1.816,2.46,2.992,6.915,4.336c5.812,1.707,10.679,5.217,10.679,10.738   C171.026,54.747,164.105,58.383,157.948,58.383"></path>	</g>	<g>		<path fill="#17345D" d="M37.23,67.252c-0.646-0.701-1.335-1.22-2.067-1.555s-1.541-0.503-2.426-0.503   c-0.713,0-1.41,0.145-2.089,0.434c-0.68,0.289-1.269,0.692-1.767,1.209c-0.517,0.535-0.904,1.133-1.162,1.794   s-0.388,1.392-0.388,2.191c0,0.627,0.077,1.205,0.231,1.734c0.153,0.529,0.384,1.015,0.692,1.458   c0.541,0.769,1.207,1.36,1.997,1.775c0.791,0.415,1.644,0.623,2.56,0.623c0.861,0,1.661-0.179,2.399-0.535   c0.738-0.356,1.412-0.889,2.021-1.596v2.131c-0.67,0.485-1.392,0.854-2.164,1.103s-1.57,0.373-2.394,0.373   c-0.713,0-1.409-0.105-2.085-0.317c-0.677-0.213-1.31-0.521-1.9-0.928c-0.984-0.683-1.736-1.522-2.256-2.519   c-0.52-0.996-0.78-2.091-0.78-3.284c0-1.039,0.174-1.985,0.521-2.837c0.347-0.852,0.878-1.625,1.591-2.32   c0.689-0.664,1.452-1.161,2.288-1.49s1.75-0.493,2.74-0.493c0.781,0,1.537,0.118,2.27,0.355c0.731,0.236,1.454,0.604,2.168,1.102   V67.252z"></path>		<path fill="#17345D" d="M39.14,73.332c0-0.621,0.114-1.207,0.341-1.758s0.56-1.041,0.997-1.472   c0.437-0.431,0.932-0.758,1.485-0.982c0.553-0.225,1.144-0.337,1.771-0.337c0.615,0,1.198,0.114,1.749,0.342   c0.55,0.228,1.05,0.56,1.499,0.996c0.437,0.425,0.769,0.912,0.997,1.462c0.227,0.551,0.341,1.134,0.341,1.749   c0,0.614-0.114,1.194-0.341,1.738c-0.228,0.545-0.56,1.029-0.997,1.453c-0.449,0.443-0.952,0.781-1.508,1.015   c-0.557,0.234-1.136,0.351-1.739,0.351c-0.621,0-1.21-0.115-1.767-0.346s-1.053-0.561-1.49-0.991   c-0.437-0.443-0.769-0.936-0.997-1.477S39.14,73.953,39.14,73.332z M40.671,73.332c0,0.892,0.298,1.646,0.895,2.265   s1.319,0.927,2.168,0.927c0.843,0,1.559-0.309,2.15-0.927c0.59-0.618,0.885-1.373,0.885-2.265c0-0.893-0.295-1.647-0.885-2.266   c-0.591-0.618-1.307-0.927-2.15-0.927c-0.855,0-1.579,0.309-2.172,0.927C40.968,71.685,40.671,72.439,40.671,73.332z"></path>		<path fill="#17345D" d="M50.571,77.529v-8.441h1.412v1.301c0.363-0.541,0.799-0.944,1.31-1.209   c0.51-0.264,1.101-0.396,1.771-0.396c0.996,0,1.774,0.265,2.334,0.794c0.56,0.528,0.839,1.264,0.839,2.204v5.748h-1.476v-4.973   c0-0.854-0.18-1.49-0.54-1.905s-0.915-0.622-1.666-0.622c-0.43,0-0.822,0.078-1.176,0.234c-0.354,0.157-0.647,0.38-0.881,0.669   c-0.179,0.222-0.306,0.474-0.383,0.757c-0.077,0.283-0.115,0.775-0.115,1.477v4.363H50.571z"></path>		<path fill="#17345D" d="M61.319,70.278h-1.55v-1.19h1.55v-3.404h1.476v3.404h1.55v1.19h-1.55v7.251h-1.476V70.278z"></path>		<path fill="#17345D" d="M73.847,69.088v8.441h-1.401v-1.531c-0.339,0.615-0.771,1.084-1.297,1.406   c-0.525,0.323-1.114,0.484-1.767,0.484c-1.211,0-2.188-0.416-2.929-1.25c-0.741-0.833-1.112-1.936-1.112-3.307   c0-1.391,0.36-2.496,1.08-3.317c0.72-0.82,1.682-1.231,2.888-1.231c0.708,0,1.321,0.158,1.84,0.476   c0.52,0.316,0.939,0.788,1.26,1.416v-1.587H73.847z M72.445,73.387c0-0.953-0.261-1.721-0.78-2.302s-1.197-0.872-2.034-0.872   c-0.867,0-1.544,0.268-2.029,0.803c-0.486,0.535-0.729,1.282-0.729,2.242c0,1.021,0.245,1.809,0.733,2.361   c0.489,0.554,1.182,0.831,2.081,0.831c0.861,0,1.536-0.27,2.024-0.808C72.2,75.104,72.445,74.353,72.445,73.387z"></path>		<path fill="#17345D" d="M83.211,75.527v1.679c-0.381,0.228-0.81,0.398-1.286,0.513c-0.478,0.113-0.992,0.17-1.546,0.17   c-1.304,0-2.354-0.413-3.15-1.24s-1.194-1.914-1.194-3.262c0-1.353,0.411-2.458,1.235-3.316s1.879-1.287,3.165-1.287   c0.467,0,0.924,0.05,1.37,0.147c0.445,0.099,0.865,0.243,1.259,0.434v1.55c-0.369-0.239-0.75-0.423-1.144-0.549   s-0.794-0.188-1.199-0.188c-0.947,0-1.707,0.297-2.279,0.89c-0.571,0.594-0.857,1.383-0.857,2.366   c0,0.868,0.287,1.594,0.862,2.178s1.296,0.876,2.163,0.876c0.437,0,0.864-0.076,1.282-0.23   C82.311,76.103,82.75,75.859,83.211,75.527z"></path>		<path fill="#17345D" d="M85.443,70.278h-1.55v-1.19h1.55v-3.404h1.477v3.404h1.55v1.19h-1.55v7.251h-1.477V70.278z"></path>		<path fill="#17345D" d="M106.792,67.252c-0.646-0.701-1.335-1.22-2.066-1.555c-0.732-0.335-1.541-0.503-2.427-0.503   c-0.714,0-1.41,0.145-2.09,0.434s-1.269,0.692-1.767,1.209c-0.517,0.535-0.904,1.133-1.162,1.794   c-0.259,0.661-0.388,1.392-0.388,2.191c0,0.627,0.077,1.205,0.23,1.734c0.154,0.529,0.385,1.015,0.692,1.458   c0.541,0.769,1.207,1.36,1.997,1.775s1.644,0.623,2.561,0.623c0.86,0,1.66-0.179,2.398-0.535s1.411-0.889,2.021-1.596v2.131   c-0.671,0.485-1.392,0.854-2.164,1.103c-0.771,0.249-1.569,0.373-2.394,0.373c-0.714,0-1.408-0.105-2.085-0.317   c-0.677-0.213-1.311-0.521-1.9-0.928c-0.984-0.683-1.736-1.522-2.256-2.519s-0.779-2.091-0.779-3.284   c0-1.039,0.174-1.985,0.521-2.837c0.348-0.852,0.878-1.625,1.592-2.32c0.688-0.664,1.451-1.161,2.288-1.49   c0.836-0.329,1.75-0.493,2.74-0.493c0.781,0,1.537,0.118,2.27,0.355c0.731,0.236,1.454,0.604,2.168,1.102V67.252z"></path>		<path fill="#17345D" d="M116.922,73.525h-6.688v0.129c0,0.904,0.258,1.635,0.774,2.191s1.19,0.835,2.021,0.835   c0.566,0,1.076-0.152,1.531-0.457s0.858-0.764,1.209-1.379l1.098,0.738c-0.424,0.763-0.966,1.337-1.624,1.725   s-1.42,0.581-2.287,0.581c-1.286,0-2.325-0.424-3.119-1.272c-0.793-0.849-1.189-1.962-1.189-3.34c0-1.322,0.394-2.405,1.181-3.247   c0.787-0.843,1.799-1.265,3.035-1.265c1.249,0,2.237,0.4,2.966,1.199c0.729,0.8,1.094,1.892,1.094,3.275V73.525z M115.372,72.354   c-0.05-0.744-0.297-1.317-0.743-1.721c-0.445-0.402-1.056-0.604-1.831-0.604c-0.701,0-1.285,0.21-1.753,0.632   c-0.468,0.421-0.738,0.985-0.812,1.692H115.372z"></path>		<path fill="#17345D" d="M119.1,77.529v-8.441h1.411v1.301c0.362-0.541,0.8-0.944,1.31-1.209c0.511-0.264,1.102-0.396,1.771-0.396   c0.997,0,1.774,0.265,2.334,0.794c0.56,0.528,0.84,1.264,0.84,2.204v5.748h-1.476v-4.973c0-0.854-0.181-1.49-0.54-1.905   c-0.36-0.415-0.915-0.622-1.665-0.622c-0.431,0-0.823,0.078-1.177,0.234c-0.354,0.157-0.647,0.38-0.881,0.669   c-0.179,0.222-0.306,0.474-0.383,0.757s-0.115,0.775-0.115,1.477v4.363H119.1z"></path>		<path fill="#17345D" d="M129.847,70.278h-1.55v-1.19h1.55v-3.404h1.477v3.404h1.55v1.19h-1.55v7.251h-1.477V70.278z"></path>		<path fill="#17345D" d="M142.053,73.525h-6.688v0.129c0,0.904,0.258,1.635,0.774,2.191s1.19,0.835,2.021,0.835   c0.566,0,1.076-0.152,1.531-0.457s0.858-0.764,1.209-1.379l1.098,0.738c-0.424,0.763-0.966,1.337-1.624,1.725   s-1.42,0.581-2.287,0.581c-1.286,0-2.325-0.424-3.119-1.272c-0.793-0.849-1.189-1.962-1.189-3.34c0-1.322,0.394-2.405,1.181-3.247   c0.787-0.843,1.799-1.265,3.035-1.265c1.249,0,2.237,0.4,2.966,1.199c0.729,0.8,1.094,1.892,1.094,3.275V73.525z M140.503,72.354   c-0.05-0.744-0.297-1.317-0.743-1.721c-0.445-0.402-1.056-0.604-1.831-0.604c-0.701,0-1.285,0.21-1.753,0.632   c-0.468,0.421-0.738,0.985-0.812,1.692H140.503z"></path>		<path fill="#17345D" d="M144.248,77.529v-8.441h1.283v1.753c0.387-0.732,0.799-1.255,1.235-1.568   c0.438-0.313,0.969-0.471,1.597-0.471c0.172,0,0.338,0.014,0.498,0.042c0.16,0.027,0.319,0.068,0.479,0.124l-0.479,1.301   c-0.166-0.056-0.323-0.097-0.471-0.124c-0.147-0.028-0.289-0.042-0.424-0.042c-0.763,0-1.335,0.275-1.717,0.826   c-0.381,0.55-0.571,1.379-0.571,2.486v4.114H144.248z"></path>	</g></g></svg>